<svg width="256" height="256" viewBox="0 0 256 256" fill="none" xmlns="http://www.w3.org/2000/svg">
<path d="M70.5 109L126 136.75V192.25L70.5 220L15 192.25V136.75L70.5 109Z" fill="#98BB6C"/>
<path d="M70.5 109L126 136.5H15L70.5 109Z" fill="#C5DA92"/>
<path d="M70.5 164L126 136.5H15L70.5 164Z" fill="#C5DA92"/>
<path d="M185.5 109L241 136.75V192.25L185.5 220L130 192.25V136.75L185.5 109Z" fill="#223249"/>
<path d="M185.5 109L241 136.5H130L185.5 109Z" fill="#2D4F67"/>
<path d="M185.5 164L241 136.5H130L185.5 164Z" fill="#2D4F67"/>
<path d="M128 22L184 49.75V105.25L128 133L72 105.25V49.75L128 22Z" fill="#223249"/>
<path d="M128 22L184 50H72L128 22Z" fill="#2D4F67"/>
<path d="M128 78L184 50H72L128 78Z" fill="#2D4F67"/>
</svg>
